<svg viewBox="0 0 19.18 17.15" id="icon-heart" width="100%" height="100%">
    <path fill="#ffffff" d="M17.72 1.55a4.9 4.9 0 0 0-7.14 0l-1 1-1-1a4.9 4.9 0 0 0-7.14 0 5.39 5.39 0 0 0 0 7.38l7.69 8a.6.6 0 0 0 .43.18.6.6 0 0 0 .43-.11l7.7-8a5.38 5.38 0 0 0 .03-7.45zm-.87 6.55l-7.26 7.58-7.26-7.59a4.18 4.18 0 0 1 0-5.72 3.7 3.7 0 0 1 5.41 0l1.42 1.49 1.67 1.85a.6.6 0 1 0 .89-.8l-1.31-1.45 1-1.08a3.78 3.78 0 0 1 5.41 0 4.17 4.17 0 0 1 .03 5.72z"></path>
    <path fill="none" d="M16.85 8.1l-7.26 7.58-7.26-7.59a4.18 4.18 0 0 1 0-5.72 3.7 3.7 0 0 1 5.41 0l1.42 1.49 1.67 1.85a.6.6 0 1 0 .89-.8l-1.31-1.45 1-1.08a3.78 3.78 0 0 1 5.41 0 4.17 4.17 0 0 1 .03 5.72z"></path>
</svg>